<?xml version="1.0" standalone="no"?>
<!DOCTYPE svg PUBLIC "-//W3C//DTD SVG 20010904//EN"
 "http://www.w3.org/TR/2001/REC-SVG-20010904/DTD/svg10.dtd">
<svg version="1.0" xmlns="http://www.w3.org/2000/svg"
 width="512.000000pt" height="512.000000pt" viewBox="0 0 512.000000 512.000000"
 preserveAspectRatio="xMidYMid meet">
<metadata>
Created by potrace 1.14, written by Peter Selinger 2001-2017
</metadata>
<g transform="translate(0.000000,512.000000) scale(0.100000,-0.100000)"
fill="#000000" stroke="none">
<path d="M1245 5105 c-110 -57 -161 -209 -171 -515 -7 -192 1 -165 -86 -315
-105 -182 -221 -449 -253 -582 -19 -80 -17 -79 -95 -63 -62 12 -106 -7 -115
-50 -14 -63 19 -90 128 -106 53 -7 53 -8 61 -74 3 -25 8 -61 12 -80 6 -35 5
-36 -47 -60 -105 -49 -135 -105 -84 -155 32 -33 58 -31 133 9 l63 34 19 -36
c51 -99 160 -203 267 -257 47 -23 51 -28 43 -48 -18 -44 -92 -322 -92 -346 0
-15 11 -35 27 -48 29 -25 29 -33 4 -125 -8 -33 -14 -38 -39 -38 -17 0 -38 -8
-48 -18 -14 -14 -60 -157 -77 -241 -2 -9 -13 -52 -24 -97 -12 -45 -23 -90 -25
-100 -2 -10 -13 -55 -25 -99 -11 -44 -22 -91 -25 -105 -2 -14 -10 -47 -16 -75
-6 -27 -13 -59 -15 -70 -2 -11 -11 -56 -20 -100 -31 -153 -55 -321 -62 -431
-16 -290 99 -489 348 -602 46 -21 104 -44 129 -51 25 -7 56 -17 70 -22 14 -5
36 -10 50 -13 14 -2 43 -8 65 -12 38 -8 47 -9 71 -12 6 -1 20 -24 32 -50 83
-183 239 -201 332 -39 l30 52 253 0 254 1 23 -44 c47 -87 119 -132 193 -118
45 8 105 68 140 139 15 32 31 57 35 58 92 10 380 88 477 129 11 5 54 23 95 41
85 36 232 112 272 140 14 10 29 19 33 19 4 0 44 25 89 56 325 226 559 495 711
819 63 133 131 329 149 425 2 14 9 48 15 75 29 142 36 237 36 515 0 233 -5
345 -21 470 -7 52 -35 88 -73 92 -21 2 -27 10 -33 43 -4 22 -10 54 -13 70 -4
25 -1 33 24 50 16 10 31 29 34 42 2 12 -10 66 -28 120 -68 212 -176 363 -303
425 -60 30 -76 33 -152 33 -77 -1 -91 -4 -148 -34 -114 -62 -184 -172 -187
-295 -2 -100 20 -174 133 -441 175 -415 205 -610 146 -945 -27 -156 -92 -360
-149 -470 -22 -42 -22 -98 -1 -113 14 -11 12 -19 -24 -78 -38 -64 -42 -67 -77
-67 -34 0 -44 -7 -93 -63 -70 -81 -182 -190 -188 -184 -3 3 -16 67 -29 142
-13 76 -26 152 -29 168 -11 62 -76 339 -116 495 -16 63 -31 122 -33 131 -12
59 -191 707 -221 801 -4 12 11 25 58 50 79 42 198 154 239 224 17 30 36 54 42
54 7 -1 37 -14 67 -30 30 -17 64 -30 76 -30 20 0 63 33 65 50 1 6 2 16 3 23 5
30 -21 58 -90 97 -41 23 -72 45 -70 49 4 6 7 25 21 122 l7 47 49 6 c27 4 51 6
54 6 3 0 19 7 36 15 41 22 53 58 33 100 -18 38 -50 47 -123 33 -25 -4 -51 -6
-57 -4 -7 3 -15 24 -19 48 -20 121 -154 428 -283 647 l-55 94 -3 136 c-4 212
-24 340 -68 436 -39 85 -83 122 -159 131 -121 15 -243 -107 -384 -387 l-58
-114 -318 0 c-175 0 -322 2 -326 5 -4 3 -32 55 -62 115 -92 184 -191 314 -276
362 -38 22 -124 26 -158 8z"/>
</g>
</svg>
